<svg width="149" height="30" viewBox="0 0 149 30" fill="none" xmlns="http://www.w3.org/2000/svg">
<path d="M78.4269 0.204455C70.4483 -0.363888 69.1481 5.15911 69.0514 8.16129C76.838 8.78544 78.5589 3.17805 78.4269 0.204455Z" fill="white"/>
<path d="M78.4269 0.204455C70.4483 -0.363888 69.1481 5.15911 69.0514 8.16129C69.2571 7.73579 70.0823 5.05405 78.4269 0.204455Z" fill="white"/>
<path d="M15.6116 21.1404H4.13708C4.21513 22.9357 4.59241 24.3147 5.26892 25.2775C5.97144 26.2402 7.14231 26.7215 8.78153 26.7215C9.56211 26.7215 10.3947 26.6044 11.2794 26.3703C12.1901 26.1361 13.1268 25.7588 14.0895 25.2384C14.74 25.8369 15.1693 26.6955 15.3774 27.8143C13.2959 29.2714 10.8501 30 8.03998 30C6.55687 30 5.30795 29.7398 4.29319 29.2194C3.27844 28.699 2.44582 27.9835 1.79533 27.0728C1.17087 26.1621 0.715532 25.0823 0.429319 23.8334C0.143106 22.5584 0 21.1924 0 19.7353C0 18.3043 0.182135 16.9773 0.546406 15.7544C0.910677 14.5055 1.43106 13.4387 2.10757 12.554C2.78407 11.6693 3.61669 10.9798 4.60542 10.4855C5.62018 9.96508 6.75202 9.70489 8.00095 9.70489C9.24988 9.70489 10.3557 9.91304 11.3184 10.3294C12.3071 10.7457 13.1398 11.3311 13.8163 12.0857C14.4928 12.8142 15.0002 13.6989 15.3384 14.7396C15.7027 15.7544 15.8848 16.8602 15.8848 18.0571C15.8848 18.5775 15.8588 19.0979 15.8067 19.6183C15.7807 20.1126 15.7157 20.62 15.6116 21.1404ZM8.11803 12.7101C5.6462 12.7101 4.31921 14.5445 4.13708 18.2132H12.0209V17.7058C12.0209 16.2227 11.6957 15.0258 11.0452 14.1152C10.4207 13.1785 9.44502 12.7101 8.11803 12.7101Z" fill="#24A125"/>
<path d="M31.0281 17.6668V17.2375C31.0281 14.2973 29.8832 12.8272 27.5935 12.8272C26.3446 12.8272 25.3819 13.4257 24.7054 14.6225C24.0289 15.8194 23.6906 17.6018 23.6906 19.9695C23.6906 24.4448 25.1607 26.6825 28.1009 26.6825C29.558 26.6825 31.1321 26.032 32.8234 24.7311C33.1877 24.9392 33.5389 25.2775 33.8772 25.7458C34.2154 26.2142 34.4366 26.6695 34.5407 27.1118C32.6152 29.0373 30.2865 30 27.5545 30C26.1755 30 24.9786 29.7528 23.9638 29.2584C22.9751 28.738 22.1425 28.0225 21.466 27.1118C20.8155 26.2011 20.3211 25.1083 19.9829 23.8334C19.6706 22.5584 19.5145 21.1534 19.5145 19.6183C19.5145 18.0311 19.7357 16.626 20.178 15.4031C20.6203 14.1542 21.2058 13.1134 21.9343 12.2808C22.6889 11.4482 23.5475 10.8107 24.5102 10.3684C25.499 9.92605 26.5397 9.70489 27.6325 9.70489C28.7514 9.70489 29.7401 9.87401 30.5987 10.2123C31.4834 10.5505 32.225 10.9928 32.8234 11.5393C33.4479 12.0857 33.9162 12.7231 34.2284 13.4517C34.5667 14.1542 34.7358 14.8697 34.7358 15.5983C34.7358 17.0814 34.0593 17.8229 32.7063 17.8229C32.0298 17.8229 31.4704 17.7709 31.0281 17.6668Z" fill="#24A125"/>
<path d="M51.7464 27.8534C50.3153 29.2844 48.4289 30 46.0872 30C44.7342 30 43.5373 29.7658 42.4965 29.2974C41.4557 28.8031 40.5711 28.1136 39.8425 27.2289C39.14 26.3182 38.5936 25.2514 38.2033 24.0285C37.839 22.7796 37.6569 21.3876 37.6569 19.8524C37.6569 18.3433 37.839 16.9643 38.2033 15.7154C38.5936 14.4664 39.14 13.3996 39.8425 12.515C40.5711 11.6043 41.4557 10.9148 42.4965 10.4464C43.5373 9.95207 44.7342 9.70489 46.0872 9.70489C47.4402 9.70489 48.6371 9.95207 49.6778 10.4464C50.7186 10.9148 51.5903 11.6043 52.2928 12.515C53.0213 13.3996 53.5677 14.4664 53.932 15.7154C54.3223 16.9643 54.5174 18.3433 54.5174 19.8524C54.5174 23.339 53.5937 26.006 51.7464 27.8534ZM46.0872 12.7882C43.2511 12.7882 41.833 15.1429 41.833 19.8524C41.833 24.5619 43.2511 26.9167 46.0872 26.9167C48.9493 26.9167 50.3804 24.5619 50.3804 19.8524C50.3804 15.1429 48.9493 12.7882 46.0872 12.7882Z" fill="#24A125"/>
<path d="M64.6857 26.4874H66.1298C66.364 27.1378 66.481 27.7103 66.481 28.2046C66.481 28.699 66.442 29.0893 66.364 29.3755C65.3232 29.5576 64.2174 29.6487 63.0465 29.6487C60.4706 29.6487 59.1826 28.3087 59.1826 25.6287V1.04045L59.4558 0.806274H60.978C61.7846 0.806274 62.344 1.01443 62.6562 1.43074C62.9944 1.82103 63.1636 2.47151 63.1636 3.38219V24.7311C63.1636 25.9019 63.6709 26.4874 64.6857 26.4874Z" fill="#24A125"/>
<path d="M75.2995 13.5688V29.4926C74.8051 29.5967 74.1286 29.6487 73.2699 29.6487C72.4373 29.6487 71.7738 29.5967 71.2795 29.4926V15.208C71.2795 14.4794 71.1494 13.959 70.8892 13.6468C70.629 13.3346 70.1867 13.1785 69.5622 13.1785H69.1329C69.0028 12.606 68.9377 12.1247 68.9377 11.7344C68.9377 11.3441 69.0028 10.8497 69.1329 10.2513C69.9915 10.1472 70.8111 10.0952 71.5917 10.0952H72.1381C73.1268 10.0952 73.8944 10.4074 74.4408 11.0319C75.0132 11.6563 75.2995 12.502 75.2995 13.5688Z" fill="#24A125"/>
<path d="M79.4945 28.0485C79.5205 27.6062 79.6636 27.1118 79.9238 26.5654C80.184 25.993 80.4832 25.5507 80.8215 25.2384C82.903 26.3833 84.5943 26.9557 85.8952 26.9557C87.2222 26.9557 88.1979 26.7345 88.8224 26.2922C89.4729 25.8499 89.7981 25.2645 89.7981 24.5359C89.7981 23.3911 88.9785 22.5064 87.3393 21.8819L85.1537 21.0623C81.8492 19.8134 80.197 17.953 80.197 15.4812C80.197 13.6858 80.8345 12.2808 82.1094 11.266C83.4104 10.2253 85.1016 9.70489 87.1832 9.70489C89.2908 9.70489 91.3853 10.1732 93.4669 11.1099C93.4669 11.6303 93.3498 12.1767 93.1156 12.7491C92.9074 13.3216 92.6212 13.7639 92.257 14.0761C90.4096 13.2175 88.6793 12.7882 87.0661 12.7882C86.2075 12.7882 85.5179 12.9963 84.9976 13.4126C84.5032 13.829 84.256 14.3493 84.256 14.9738C84.256 15.5983 84.4381 16.0796 84.8024 16.4179C85.1927 16.7561 85.8172 17.0944 86.6758 17.4326L89.0175 18.3303C92.322 19.6052 93.9742 21.5567 93.9742 24.1847C93.9742 25.98 93.2847 27.398 91.9057 28.4388C90.5267 29.4796 88.6533 30 86.2855 30C83.9178 30 81.6541 29.3495 79.4945 28.0485Z" fill="#24A125"/>
<path d="M107.926 10.1732C108.056 10.6156 108.121 11.1229 108.121 11.6954C108.121 12.2678 108.056 12.7622 107.926 13.1785L103.126 13.1004V24.7701C103.126 25.9149 103.659 26.4874 104.726 26.4874H107.419C107.627 27.0598 107.731 27.6452 107.731 28.2437C107.731 28.8161 107.705 29.1934 107.653 29.3755C106.144 29.5576 104.687 29.6487 103.282 29.6487C100.55 29.6487 99.1837 28.3087 99.1837 25.6287V13.1394L96.2955 13.1785C96.1915 12.7361 96.1394 12.2548 96.1394 11.7344C96.1394 11.188 96.1915 10.6676 96.2955 10.1732L99.1837 10.2513V6.81674C99.1837 5.88004 99.3398 5.21655 99.652 4.82626C99.9643 4.43597 100.524 4.24083 101.33 4.24083H102.852L103.126 4.51403V10.2903L107.926 10.1732Z" fill="#24A125"/>
<path d="M111.775 25.4336C112.425 25.0693 113.232 24.8872 114.195 24.8872C114.637 24.8872 115.027 24.9262 115.365 25.0043C115.704 25.0563 116.003 25.1474 116.263 25.2775C116.523 25.3815 116.692 25.6157 116.771 25.98C116.875 26.3182 116.927 26.7736 116.927 27.346C116.927 27.8924 116.888 28.3477 116.81 28.712C116.758 29.0503 116.614 29.2844 116.38 29.4145C116.146 29.5446 115.86 29.6357 115.522 29.6877C115.183 29.7658 114.754 29.8048 114.234 29.8048C113.739 29.8048 113.31 29.7658 112.946 29.6877C112.607 29.6357 112.308 29.5576 112.048 29.4536C111.788 29.3495 111.619 29.1153 111.541 28.751C111.463 28.3868 111.424 27.9184 111.424 27.346C111.424 26.5134 111.541 25.8759 111.775 25.4336Z" fill="#24A125"/>
<path d="M126.906 13.5688V29.4926C126.412 29.5967 125.735 29.6487 124.877 29.6487C124.044 29.6487 123.381 29.5967 122.886 29.4926V15.208C122.886 14.4794 122.756 13.959 122.496 13.6468C122.236 13.3346 121.793 13.1785 121.169 13.1785H120.74C120.609 12.606 120.544 12.1247 120.544 11.7344C120.544 11.3441 120.609 10.8497 120.74 10.2513C121.598 10.1472 122.418 10.0952 123.198 10.0952H123.745C124.734 10.0952 125.501 10.4074 126.048 11.0319C126.62 11.6563 126.906 12.502 126.906 13.5688ZM122.028 6.58257C121.793 6.11422 121.676 5.54179 121.676 4.86529C121.676 3.7985 121.871 3.17403 122.262 2.9919C122.652 2.78374 123.303 2.66666 124.213 2.64064C125.254 2.66666 125.917 2.79675 126.204 3.03093C126.49 3.2651 126.646 3.87656 126.672 4.86529C126.646 5.80199 126.49 6.40043 126.204 6.66062C125.917 6.92082 125.254 7.06392 124.213 7.08994C123.198 7.08994 122.47 6.92082 122.028 6.58257Z" fill="#24A125"/>
<path d="M145.698 27.8534C144.267 29.2844 142.381 30 140.039 30C138.686 30 137.489 29.7658 136.448 29.2974C135.407 28.8031 134.523 28.1136 133.794 27.2289C133.092 26.3182 132.545 25.2514 132.155 24.0285C131.791 22.7796 131.609 21.3876 131.609 19.8524C131.609 18.3433 131.791 16.9643 132.155 15.7154C132.545 14.4664 133.092 13.3996 133.794 12.515C134.523 11.6043 135.407 10.9148 136.448 10.4464C137.489 9.95207 138.686 9.70489 140.039 9.70489C141.392 9.70489 142.589 9.95207 143.63 10.4464C144.67 10.9148 145.542 11.6043 146.244 12.515C146.973 13.3996 147.519 14.4664 147.884 15.7154C148.274 16.9643 148.469 18.3433 148.469 19.8524C148.469 23.339 147.545 26.006 145.698 27.8534ZM140.039 12.7882C137.203 12.7882 135.785 15.1429 135.785 19.8524C135.785 24.5619 137.203 26.9167 140.039 26.9167C142.901 26.9167 144.332 24.5619 144.332 19.8524C144.332 15.1429 142.901 12.7882 140.039 12.7882Z" fill="#24A125"/>
<path d="M15.6116 21.1404H4.13708C4.21513 22.9357 4.59241 24.3147 5.26892 25.2775C5.97144 26.2402 7.14231 26.7215 8.78153 26.7215C9.56211 26.7215 10.3947 26.6044 11.2794 26.3703C12.1901 26.1361 13.1268 25.7588 14.0895 25.2384C14.74 25.8369 15.1693 26.6955 15.3774 27.8143C13.2959 29.2714 10.8501 30 8.03998 30C6.55687 30 5.30795 29.7398 4.29319 29.2194C3.27844 28.699 2.44582 27.9835 1.79533 27.0728C1.17087 26.1621 0.715532 25.0823 0.429319 23.8334C0.143106 22.5584 0 21.1924 0 19.7353C0 18.3043 0.182135 16.9773 0.546406 15.7544C0.910677 14.5055 1.43106 13.4387 2.10757 12.554C2.78407 11.6693 3.61669 10.9798 4.60542 10.4855C5.62018 9.96508 6.75202 9.70489 8.00095 9.70489C9.24988 9.70489 10.3557 9.91304 11.3184 10.3294C12.3071 10.7457 13.1398 11.3311 13.8163 12.0857C14.4928 12.8142 15.0002 13.6989 15.3384 14.7396C15.7027 15.7544 15.8848 16.8602 15.8848 18.0571C15.8848 18.5775 15.8588 19.0979 15.8067 19.6183C15.7807 20.1126 15.7157 20.62 15.6116 21.1404ZM8.11803 12.7101C5.6462 12.7101 4.31921 14.5445 4.13708 18.2132H12.0209V17.7058C12.0209 16.2227 11.6957 15.0258 11.0452 14.1152C10.4207 13.1785 9.44502 12.7101 8.11803 12.7101Z" fill="#24A125"/>
<path d="M31.0281 17.6668V17.2375C31.0281 14.2973 29.8832 12.8272 27.5935 12.8272C26.3446 12.8272 25.3819 13.4257 24.7054 14.6225C24.0289 15.8194 23.6906 17.6018 23.6906 19.9695C23.6906 24.4448 25.1607 26.6825 28.1009 26.6825C29.558 26.6825 31.1321 26.032 32.8234 24.7311C33.1877 24.9392 33.5389 25.2775 33.8772 25.7458C34.2154 26.2142 34.4366 26.6695 34.5407 27.1118C32.6152 29.0373 30.2865 30 27.5545 30C26.1755 30 24.9786 29.7528 23.9638 29.2584C22.9751 28.738 22.1425 28.0225 21.466 27.1118C20.8155 26.2011 20.3211 25.1083 19.9829 23.8334C19.6706 22.5584 19.5145 21.1534 19.5145 19.6183C19.5145 18.0311 19.7357 16.626 20.178 15.4031C20.6203 14.1542 21.2058 13.1134 21.9343 12.2808C22.6889 11.4482 23.5475 10.8107 24.5102 10.3684C25.499 9.92605 26.5397 9.70489 27.6325 9.70489C28.7514 9.70489 29.7401 9.87401 30.5987 10.2123C31.4834 10.5505 32.225 10.9928 32.8234 11.5393C33.4479 12.0857 33.9162 12.7231 34.2284 13.4517C34.5667 14.1542 34.7358 14.8697 34.7358 15.5983C34.7358 17.0814 34.0593 17.8229 32.7063 17.8229C32.0298 17.8229 31.4704 17.7709 31.0281 17.6668Z" fill="#24A125"/>
<path d="M51.7464 27.8534C50.3153 29.2844 48.4289 30 46.0872 30C44.7342 30 43.5373 29.7658 42.4965 29.2974C41.4557 28.8031 40.5711 28.1136 39.8425 27.2289C39.14 26.3182 38.5936 25.2514 38.2033 24.0285C37.839 22.7796 37.6569 21.3876 37.6569 19.8524C37.6569 18.3433 37.839 16.9643 38.2033 15.7154C38.5936 14.4664 39.14 13.3996 39.8425 12.515C40.5711 11.6043 41.4557 10.9148 42.4965 10.4464C43.5373 9.95207 44.7342 9.70489 46.0872 9.70489C47.4402 9.70489 48.6371 9.95207 49.6778 10.4464C50.7186 10.9148 51.5903 11.6043 52.2928 12.515C53.0213 13.3996 53.5677 14.4664 53.932 15.7154C54.3223 16.9643 54.5174 18.3433 54.5174 19.8524C54.5174 23.339 53.5937 26.006 51.7464 27.8534ZM46.0872 12.7882C43.2511 12.7882 41.833 15.1429 41.833 19.8524C41.833 24.5619 43.2511 26.9167 46.0872 26.9167C48.9493 26.9167 50.3804 24.5619 50.3804 19.8524C50.3804 15.1429 48.9493 12.7882 46.0872 12.7882Z" fill="#24A125"/>
<path d="M64.6857 26.4874H66.1298C66.364 27.1378 66.481 27.7103 66.481 28.2046C66.481 28.699 66.442 29.0893 66.364 29.3755C65.3232 29.5576 64.2174 29.6487 63.0465 29.6487C60.4706 29.6487 59.1826 28.3087 59.1826 25.6287V1.04045L59.4558 0.806274H60.978C61.7846 0.806274 62.344 1.01443 62.6562 1.43074C62.9944 1.82103 63.1636 2.47151 63.1636 3.38219V24.7311C63.1636 25.9019 63.6709 26.4874 64.6857 26.4874Z" fill="#24A125"/>
<path d="M75.2995 13.5688V29.4926C74.8051 29.5967 74.1286 29.6487 73.2699 29.6487C72.4373 29.6487 71.7738 29.5967 71.2795 29.4926V15.208C71.2795 14.4794 71.1494 13.959 70.8892 13.6468C70.629 13.3346 70.1867 13.1785 69.5622 13.1785H69.1329C69.0028 12.606 68.9377 12.1247 68.9377 11.7344C68.9377 11.3441 69.0028 10.8497 69.1329 10.2513C69.9915 10.1472 70.8111 10.0952 71.5917 10.0952H72.1381C73.1268 10.0952 73.8944 10.4074 74.4408 11.0319C75.0132 11.6563 75.2995 12.502 75.2995 13.5688Z" fill="#24A125"/>
<path d="M79.4945 28.0485C79.5205 27.6062 79.6636 27.1118 79.9238 26.5654C80.184 25.993 80.4832 25.5507 80.8215 25.2384C82.903 26.3833 84.5943 26.9557 85.8952 26.9557C87.2222 26.9557 88.1979 26.7345 88.8224 26.2922C89.4729 25.8499 89.7981 25.2645 89.7981 24.5359C89.7981 23.3911 88.9785 22.5064 87.3393 21.8819L85.1537 21.0623C81.8492 19.8134 80.197 17.953 80.197 15.4812C80.197 13.6858 80.8345 12.2808 82.1094 11.266C83.4104 10.2253 85.1016 9.70489 87.1832 9.70489C89.2908 9.70489 91.3853 10.1732 93.4669 11.1099C93.4669 11.6303 93.3498 12.1767 93.1156 12.7491C92.9074 13.3216 92.6212 13.7639 92.257 14.0761C90.4096 13.2175 88.6793 12.7882 87.0661 12.7882C86.2075 12.7882 85.5179 12.9963 84.9976 13.4126C84.5032 13.829 84.256 14.3493 84.256 14.9738C84.256 15.5983 84.4381 16.0796 84.8024 16.4179C85.1927 16.7561 85.8172 17.0944 86.6758 17.4326L89.0175 18.3303C92.322 19.6052 93.9742 21.5567 93.9742 24.1847C93.9742 25.98 93.2847 27.398 91.9057 28.4388C90.5267 29.4796 88.6533 30 86.2855 30C83.9178 30 81.6541 29.3495 79.4945 28.0485Z" fill="#24A125"/>
<path d="M107.926 10.1732C108.056 10.6156 108.121 11.1229 108.121 11.6954C108.121 12.2678 108.056 12.7622 107.926 13.1785L103.126 13.1004V24.7701C103.126 25.9149 103.659 26.4874 104.726 26.4874H107.419C107.627 27.0598 107.731 27.6452 107.731 28.2437C107.731 28.8161 107.705 29.1934 107.653 29.3755C106.144 29.5576 104.687 29.6487 103.282 29.6487C100.55 29.6487 99.1837 28.3087 99.1837 25.6287V13.1394L96.2955 13.1785C96.1915 12.7361 96.1394 12.2548 96.1394 11.7344C96.1394 11.188 96.1915 10.6676 96.2955 10.1732L99.1837 10.2513V6.81674C99.1837 5.88004 99.3398 5.21655 99.652 4.82626C99.9643 4.43597 100.524 4.24083 101.33 4.24083H102.852L103.126 4.51403V10.2903L107.926 10.1732Z" fill="#24A125"/>
<path d="M111.775 25.4336C112.425 25.0693 113.232 24.8872 114.195 24.8872C114.637 24.8872 115.027 24.9262 115.365 25.0043C115.704 25.0563 116.003 25.1474 116.263 25.2775C116.523 25.3815 116.692 25.6157 116.771 25.98C116.875 26.3182 116.927 26.7736 116.927 27.346C116.927 27.8924 116.888 28.3477 116.81 28.712C116.758 29.0503 116.614 29.2844 116.38 29.4145C116.146 29.5446 115.86 29.6357 115.522 29.6877C115.183 29.7658 114.754 29.8048 114.234 29.8048C113.739 29.8048 113.31 29.7658 112.946 29.6877C112.607 29.6357 112.308 29.5576 112.048 29.4536C111.788 29.3495 111.619 29.1153 111.541 28.751C111.463 28.3868 111.424 27.9184 111.424 27.346C111.424 26.5134 111.541 25.8759 111.775 25.4336Z" fill="#24A125"/>
<path d="M126.906 13.5688V29.4926C126.412 29.5967 125.735 29.6487 124.877 29.6487C124.044 29.6487 123.381 29.5967 122.886 29.4926V15.208C122.886 14.4794 122.756 13.959 122.496 13.6468C122.236 13.3346 121.793 13.1785 121.169 13.1785H120.74C120.609 12.606 120.544 12.1247 120.544 11.7344C120.544 11.3441 120.609 10.8497 120.74 10.2513C121.598 10.1472 122.418 10.0952 123.198 10.0952H123.745C124.734 10.0952 125.501 10.4074 126.048 11.0319C126.62 11.6563 126.906 12.502 126.906 13.5688ZM122.028 6.58257C121.793 6.11422 121.676 5.54179 121.676 4.86529C121.676 3.7985 121.871 3.17403 122.262 2.9919C122.652 2.78374 123.303 2.66666 124.213 2.64064C125.254 2.66666 125.917 2.79675 126.204 3.03093C126.49 3.2651 126.646 3.87656 126.672 4.86529C126.646 5.80199 126.49 6.40043 126.204 6.66062C125.917 6.92082 125.254 7.06392 124.213 7.08994C123.198 7.08994 122.47 6.92082 122.028 6.58257Z" fill="#24A125"/>
<path d="M145.698 27.8534C144.267 29.2844 142.381 30 140.039 30C138.686 30 137.489 29.7658 136.448 29.2974C135.407 28.8031 134.523 28.1136 133.794 27.2289C133.092 26.3182 132.545 25.2514 132.155 24.0285C131.791 22.7796 131.609 21.3876 131.609 19.8524C131.609 18.3433 131.791 16.9643 132.155 15.7154C132.545 14.4664 133.092 13.3996 133.794 12.515C134.523 11.6043 135.407 10.9148 136.448 10.4464C137.489 9.95207 138.686 9.70489 140.039 9.70489C141.392 9.70489 142.589 9.95207 143.63 10.4464C144.67 10.9148 145.542 11.6043 146.244 12.515C146.973 13.3996 147.519 14.4664 147.884 15.7154C148.274 16.9643 148.469 18.3433 148.469 19.8524C148.469 23.339 147.545 26.006 145.698 27.8534ZM140.039 12.7882C137.203 12.7882 135.785 15.1429 135.785 19.8524C135.785 24.5619 137.203 26.9167 140.039 26.9167C142.901 26.9167 144.332 24.5619 144.332 19.8524C144.332 15.1429 142.901 12.7882 140.039 12.7882Z" fill="#24A125"/>
<path d="M15.6116 21.1404H4.13708C4.21513 22.9357 4.59241 24.3147 5.26892 25.2775C5.97144 26.2402 7.14231 26.7215 8.78153 26.7215C9.56211 26.7215 10.3947 26.6044 11.2794 26.3703C12.1901 26.1361 13.1268 25.7588 14.0895 25.2384C14.74 25.8369 15.1693 26.6955 15.3774 27.8143C13.2959 29.2714 10.8501 30 8.03998 30C6.55687 30 5.30795 29.7398 4.29319 29.2194C3.27844 28.699 2.44582 27.9835 1.79533 27.0728C1.17087 26.1621 0.715532 25.0823 0.429319 23.8334C0.143106 22.5584 0 21.1924 0 19.7353C0 18.3043 0.182135 16.9773 0.546406 15.7544C0.910677 14.5055 1.43106 13.4387 2.10757 12.554C2.78407 11.6693 3.61669 10.9798 4.60542 10.4855C5.62018 9.96508 6.75202 9.70489 8.00095 9.70489C9.24988 9.70489 10.3557 9.91304 11.3184 10.3294C12.3071 10.7457 13.1398 11.3311 13.8163 12.0857C14.4928 12.8142 15.0002 13.6989 15.3384 14.7396C15.7027 15.7544 15.8848 16.8602 15.8848 18.0571C15.8848 18.5775 15.8588 19.0979 15.8067 19.6183C15.7807 20.1126 15.7157 20.62 15.6116 21.1404ZM8.11803 12.7101C5.6462 12.7101 4.31921 14.5445 4.13708 18.2132H12.0209V17.7058C12.0209 16.2227 11.6957 15.0258 11.0452 14.1152C10.4207 13.1785 9.44502 12.7101 8.11803 12.7101Z" fill="white"/>
<path d="M31.0281 17.6668V17.2375C31.0281 14.2973 29.8832 12.8272 27.5935 12.8272C26.3446 12.8272 25.3819 13.4257 24.7054 14.6225C24.0289 15.8194 23.6906 17.6018 23.6906 19.9695C23.6906 24.4448 25.1607 26.6825 28.1009 26.6825C29.558 26.6825 31.1321 26.032 32.8234 24.7311C33.1877 24.9392 33.5389 25.2775 33.8772 25.7458C34.2154 26.2142 34.4366 26.6695 34.5407 27.1118C32.6152 29.0373 30.2865 30 27.5545 30C26.1755 30 24.9786 29.7528 23.9638 29.2584C22.9751 28.738 22.1425 28.0225 21.466 27.1118C20.8155 26.2011 20.3211 25.1083 19.9829 23.8334C19.6706 22.5584 19.5145 21.1534 19.5145 19.6183C19.5145 18.0311 19.7357 16.626 20.178 15.4031C20.6203 14.1542 21.2058 13.1134 21.9343 12.2808C22.6889 11.4482 23.5475 10.8107 24.5102 10.3684C25.499 9.92605 26.5397 9.70489 27.6325 9.70489C28.7514 9.70489 29.7401 9.87401 30.5987 10.2123C31.4834 10.5505 32.225 10.9928 32.8234 11.5393C33.4479 12.0857 33.9162 12.7231 34.2284 13.4517C34.5667 14.1542 34.7358 14.8697 34.7358 15.5983C34.7358 17.0814 34.0593 17.8229 32.7063 17.8229C32.0298 17.8229 31.4704 17.7709 31.0281 17.6668Z" fill="white"/>
<path d="M51.7464 27.8534C50.3153 29.2844 48.4289 30 46.0872 30C44.7342 30 43.5373 29.7658 42.4965 29.2974C41.4557 28.8031 40.5711 28.1136 39.8425 27.2289C39.14 26.3182 38.5936 25.2514 38.2033 24.0285C37.839 22.7796 37.6569 21.3876 37.6569 19.8524C37.6569 18.3433 37.839 16.9643 38.2033 15.7154C38.5936 14.4664 39.14 13.3996 39.8425 12.515C40.5711 11.6043 41.4557 10.9148 42.4965 10.4464C43.5373 9.95207 44.7342 9.70489 46.0872 9.70489C47.4402 9.70489 48.6371 9.95207 49.6778 10.4464C50.7186 10.9148 51.5903 11.6043 52.2928 12.515C53.0213 13.3996 53.5677 14.4664 53.932 15.7154C54.3223 16.9643 54.5174 18.3433 54.5174 19.8524C54.5174 23.339 53.5937 26.006 51.7464 27.8534ZM46.0872 12.7882C43.2511 12.7882 41.833 15.1429 41.833 19.8524C41.833 24.5619 43.2511 26.9167 46.0872 26.9167C48.9493 26.9167 50.3804 24.5619 50.3804 19.8524C50.3804 15.1429 48.9493 12.7882 46.0872 12.7882Z" fill="white"/>
<path d="M64.6857 26.4874H66.1298C66.364 27.1378 66.481 27.7103 66.481 28.2046C66.481 28.699 66.442 29.0893 66.364 29.3755C65.3232 29.5576 64.2174 29.6487 63.0465 29.6487C60.4706 29.6487 59.1826 28.3087 59.1826 25.6287V1.04045L59.4558 0.806274H60.978C61.7846 0.806274 62.344 1.01443 62.6562 1.43074C62.9944 1.82103 63.1636 2.47151 63.1636 3.38219V24.7311C63.1636 25.9019 63.6709 26.4874 64.6857 26.4874Z" fill="white"/>
<path d="M75.2995 13.5688V29.4926C74.8051 29.5967 74.1286 29.6487 73.2699 29.6487C72.4373 29.6487 71.7738 29.5967 71.2795 29.4926V15.208C71.2795 14.4794 71.1494 13.959 70.8892 13.6468C70.629 13.3346 70.1867 13.1785 69.5622 13.1785H69.1329C69.0028 12.606 68.9377 12.1247 68.9377 11.7344C68.9377 11.3441 69.0028 10.8497 69.1329 10.2513C69.9915 10.1472 70.8111 10.0952 71.5917 10.0952H72.1381C73.1268 10.0952 73.8944 10.4074 74.4408 11.0319C75.0132 11.6563 75.2995 12.502 75.2995 13.5688Z" fill="white"/>
<path d="M79.4945 28.0485C79.5205 27.6062 79.6636 27.1118 79.9238 26.5654C80.184 25.993 80.4832 25.5507 80.8215 25.2384C82.903 26.3833 84.5943 26.9557 85.8952 26.9557C87.2222 26.9557 88.1979 26.7345 88.8224 26.2922C89.4729 25.8499 89.7981 25.2645 89.7981 24.5359C89.7981 23.3911 88.9785 22.5064 87.3393 21.8819L85.1537 21.0623C81.8492 19.8134 80.197 17.953 80.197 15.4812C80.197 13.6858 80.8345 12.2808 82.1094 11.266C83.4104 10.2253 85.1016 9.70489 87.1832 9.70489C89.2908 9.70489 91.3853 10.1732 93.4669 11.1099C93.4669 11.6303 93.3498 12.1767 93.1156 12.7491C92.9074 13.3216 92.6212 13.7639 92.257 14.0761C90.4096 13.2175 88.6793 12.7882 87.0661 12.7882C86.2075 12.7882 85.5179 12.9963 84.9976 13.4126C84.5032 13.829 84.256 14.3493 84.256 14.9738C84.256 15.5983 84.4381 16.0796 84.8024 16.4179C85.1927 16.7561 85.8172 17.0944 86.6758 17.4326L89.0175 18.3303C92.322 19.6052 93.9742 21.5567 93.9742 24.1847C93.9742 25.98 93.2847 27.398 91.9057 28.4388C90.5267 29.4796 88.6533 30 86.2855 30C83.9178 30 81.6541 29.3495 79.4945 28.0485Z" fill="white"/>
<path d="M107.926 10.1732C108.056 10.6156 108.121 11.1229 108.121 11.6954C108.121 12.2678 108.056 12.7622 107.926 13.1785L103.126 13.1004V24.7701C103.126 25.9149 103.659 26.4874 104.726 26.4874H107.419C107.627 27.0598 107.731 27.6452 107.731 28.2437C107.731 28.8161 107.705 29.1934 107.653 29.3755C106.144 29.5576 104.687 29.6487 103.282 29.6487C100.55 29.6487 99.1837 28.3087 99.1837 25.6287V13.1394L96.2955 13.1785C96.1915 12.7361 96.1394 12.2548 96.1394 11.7344C96.1394 11.188 96.1915 10.6676 96.2955 10.1732L99.1837 10.2513V6.81674C99.1837 5.88004 99.3398 5.21655 99.652 4.82626C99.9643 4.43597 100.524 4.24083 101.33 4.24083H102.852L103.126 4.51403V10.2903L107.926 10.1732Z" fill="white"/>
<path d="M111.775 25.4336C112.425 25.0693 113.232 24.8872 114.195 24.8872C114.637 24.8872 115.027 24.9262 115.365 25.0043C115.704 25.0563 116.003 25.1474 116.263 25.2775C116.523 25.3815 116.692 25.6157 116.771 25.98C116.875 26.3182 116.927 26.7736 116.927 27.346C116.927 27.8924 116.888 28.3477 116.81 28.712C116.758 29.0503 116.614 29.2844 116.38 29.4145C116.146 29.5446 115.86 29.6357 115.522 29.6877C115.183 29.7658 114.754 29.8048 114.234 29.8048C113.739 29.8048 113.31 29.7658 112.946 29.6877C112.607 29.6357 112.308 29.5576 112.048 29.4536C111.788 29.3495 111.619 29.1153 111.541 28.751C111.463 28.3868 111.424 27.9184 111.424 27.346C111.424 26.5134 111.541 25.8759 111.775 25.4336Z" fill="white"/>
<path d="M126.906 13.5688V29.4926C126.412 29.5967 125.735 29.6487 124.877 29.6487C124.044 29.6487 123.381 29.5967 122.886 29.4926V15.208C122.886 14.4794 122.756 13.959 122.496 13.6468C122.236 13.3346 121.793 13.1785 121.169 13.1785H120.74C120.609 12.606 120.544 12.1247 120.544 11.7344C120.544 11.3441 120.609 10.8497 120.74 10.2513C121.598 10.1472 122.418 10.0952 123.198 10.0952H123.745C124.734 10.0952 125.501 10.4074 126.048 11.0319C126.62 11.6563 126.906 12.502 126.906 13.5688ZM122.028 6.58257C121.793 6.11422 121.676 5.54179 121.676 4.86529C121.676 3.7985 121.871 3.17403 122.262 2.9919C122.652 2.78374 123.303 2.66666 124.213 2.64064C125.254 2.66666 125.917 2.79675 126.204 3.03093C126.49 3.2651 126.646 3.87656 126.672 4.86529C126.646 5.80199 126.49 6.40043 126.204 6.66062C125.917 6.92082 125.254 7.06392 124.213 7.08994C123.198 7.08994 122.47 6.92082 122.028 6.58257Z" fill="white"/>
<path d="M145.698 27.8534C144.267 29.2844 142.381 30 140.039 30C138.686 30 137.489 29.7658 136.448 29.2974C135.407 28.8031 134.523 28.1136 133.794 27.2289C133.092 26.3182 132.545 25.2514 132.155 24.0285C131.791 22.7796 131.609 21.3876 131.609 19.8524C131.609 18.3433 131.791 16.9643 132.155 15.7154C132.545 14.4664 133.092 13.3996 133.794 12.515C134.523 11.6043 135.407 10.9148 136.448 10.4464C137.489 9.95207 138.686 9.70489 140.039 9.70489C141.392 9.70489 142.589 9.95207 143.63 10.4464C144.67 10.9148 145.542 11.6043 146.244 12.515C146.973 13.3996 147.519 14.4664 147.884 15.7154C148.274 16.9643 148.469 18.3433 148.469 19.8524C148.469 23.339 147.545 26.006 145.698 27.8534ZM140.039 12.7882C137.203 12.7882 135.785 15.1429 135.785 19.8524C135.785 24.5619 137.203 26.9167 140.039 26.9167C142.901 26.9167 144.332 24.5619 144.332 19.8524C144.332 15.1429 142.901 12.7882 140.039 12.7882Z" fill="white"/>
</svg>
