<svg width="150" height="30" viewBox="0 0 150 30" fill="none" xmlns="http://www.w3.org/2000/svg">
<path d="M79.2103 0.204455C71.2318 -0.363888 69.9316 5.15911 69.8349 8.16129C77.6215 8.78544 79.3424 3.17805 79.2103 0.204455Z" fill="#24A125"/>
<path d="M79.2103 0.204455C71.2318 -0.363888 69.9316 5.15911 69.8349 8.16129C70.0406 7.73579 70.8658 5.05405 79.2103 0.204455Z" fill="#3FAF1D"/>
<path d="M16.3951 21.1404H4.92057C4.99863 22.9358 5.37591 24.3148 6.05241 25.2775C6.75493 26.2402 7.9258 26.7216 9.56502 26.7216C10.3456 26.7216 11.1782 26.6045 12.0629 26.3703C12.9736 26.1361 13.9103 25.7589 14.873 25.2385C15.5234 25.8369 15.9528 26.6955 16.1609 27.8144C14.0794 29.2715 11.6336 30 8.82347 30C7.34037 30 6.09144 29.7398 5.07668 29.2194C4.06193 28.699 3.22931 27.9835 2.57883 27.0728C1.95436 26.1621 1.49902 25.0823 1.21281 23.8334C0.926599 22.5585 0.783493 21.1925 0.783493 19.7354C0.783493 18.3043 0.965628 16.9773 1.3299 15.7544C1.69417 14.5055 2.21456 13.4387 2.89106 12.554C3.56756 11.6694 4.40018 10.9799 5.38892 10.4855C6.40367 9.96511 7.53551 9.70492 8.78444 9.70492C10.0334 9.70492 11.1392 9.91307 12.1019 10.3294C13.0906 10.7457 13.9233 11.3311 14.5998 12.0857C15.2763 12.8142 15.7836 13.6989 16.1219 14.7397C16.4862 15.7544 16.6683 16.8602 16.6683 18.0571C16.6683 18.5775 16.6423 19.0979 16.5902 19.6183C16.5642 20.1127 16.4992 20.62 16.3951 21.1404ZM8.90153 12.7102C6.42969 12.7102 5.1027 14.5445 4.92057 18.2132H12.8044V17.7059C12.8044 16.2228 12.4792 15.0259 11.8287 14.1152C11.2042 13.1785 10.2285 12.7102 8.90153 12.7102Z" fill="#24A125"/>
<path d="M31.8116 17.6668V17.2375C31.8116 14.2973 30.6667 12.8272 28.377 12.8272C27.1281 12.8272 26.1654 13.4257 25.4889 14.6226C24.8124 15.8195 24.4741 17.6018 24.4741 19.9695C24.4741 24.4449 25.9442 26.6825 28.8844 26.6825C30.3415 26.6825 31.9156 26.0321 33.6069 24.7311C33.9712 24.9392 34.3224 25.2775 34.6607 25.7458C34.9989 26.2142 35.2201 26.6695 35.3242 27.1119C33.3987 29.0373 31.07 30 28.338 30C26.959 30 25.7621 29.7528 24.7473 29.2585C23.7586 28.7381 22.926 28.0225 22.2494 27.1119C21.599 26.2012 21.1046 25.1084 20.7663 23.8334C20.4541 22.5585 20.298 21.1534 20.298 19.6183C20.298 18.0311 20.5192 16.6261 20.9615 15.4032C21.4038 14.1542 21.9893 13.1135 22.7178 12.2808C23.4724 11.4482 24.331 10.8107 25.2937 10.3684C26.2824 9.92608 27.3232 9.70492 28.416 9.70492C29.5349 9.70492 30.5236 9.87404 31.3822 10.2123C32.2669 10.5505 33.0084 10.9929 33.6069 11.5393C34.2314 12.0857 34.6997 12.7232 35.0119 13.4517C35.3502 14.1542 35.5193 14.8698 35.5193 15.5983C35.5193 17.0814 34.8428 17.823 33.4898 17.823C32.8133 17.823 32.2539 17.7709 31.8116 17.6668Z" fill="#24A125"/>
<path d="M52.5299 27.8534C51.0988 29.2845 49.2124 30 46.8707 30C45.5176 30 44.3208 29.7658 43.28 29.2975C42.2392 28.8031 41.3546 28.1136 40.626 27.2289C39.9235 26.3183 39.3771 25.2515 38.9868 24.0286C38.6225 22.7796 38.4404 21.3876 38.4404 19.8525C38.4404 18.3433 38.6225 16.9643 38.9868 15.7154C39.3771 14.4665 39.9235 13.3997 40.626 12.515C41.3546 11.6043 42.2392 10.9148 43.28 10.4465C44.3208 9.9521 45.5176 9.70492 46.8707 9.70492C48.2237 9.70492 49.4206 9.9521 50.4613 10.4465C51.5021 10.9148 52.3737 11.6043 53.0763 12.515C53.8048 13.3997 54.3512 14.4665 54.7155 15.7154C55.1058 16.9643 55.3009 18.3433 55.3009 19.8525C55.3009 23.3391 54.3772 26.006 52.5299 27.8534ZM46.8707 12.7882C44.0345 12.7882 42.6165 15.143 42.6165 19.8525C42.6165 24.562 44.0345 26.9167 46.8707 26.9167C49.7328 26.9167 51.1638 24.562 51.1638 19.8525C51.1638 15.143 49.7328 12.7882 46.8707 12.7882Z" fill="#24A125"/>
<path d="M65.4692 26.4874H66.9133C67.1474 27.1379 67.2645 27.7103 67.2645 28.2047C67.2645 28.699 67.2255 29.0893 67.1474 29.3755C66.1067 29.5577 65.0009 29.6487 63.83 29.6487C61.2541 29.6487 59.9661 28.3087 59.9661 25.6288V1.04048L60.2393 0.806305H61.7614C62.568 0.806305 63.1275 1.01446 63.4397 1.43077C63.7779 1.82106 63.9471 2.47154 63.9471 3.38222V24.7311C63.9471 25.902 64.4544 26.4874 65.4692 26.4874Z" fill="#24A125"/>
<path d="M76.083 13.5688V29.4926C75.5886 29.5967 74.9121 29.6487 74.0534 29.6487C73.2208 29.6487 72.5573 29.5967 72.063 29.4926V15.208C72.063 14.4795 71.9329 13.9591 71.6727 13.6468C71.4125 13.3346 70.9702 13.1785 70.3457 13.1785H69.9164C69.7863 12.6061 69.7212 12.1247 69.7212 11.7344C69.7212 11.3441 69.7863 10.8498 69.9164 10.2513C70.775 10.1472 71.5946 10.0952 72.3752 10.0952H72.9216C73.9103 10.0952 74.6779 10.4074 75.2243 11.0319C75.7967 11.6564 76.083 12.502 76.083 13.5688Z" fill="#24A125"/>
<path d="M80.278 28.0486C80.304 27.6062 80.4471 27.1119 80.7073 26.5654C80.9675 25.993 81.2667 25.5507 81.6049 25.2385C83.6865 26.3833 85.3778 26.9557 86.6787 26.9557C88.0057 26.9557 88.9814 26.7346 89.6059 26.2922C90.2564 25.8499 90.5816 25.2645 90.5816 24.5359C90.5816 23.3911 89.762 22.5064 88.1228 21.882L85.9372 21.0624C82.6327 19.8134 80.9805 17.953 80.9805 15.4812C80.9805 13.6859 81.618 12.2808 82.8929 11.2661C84.1939 10.2253 85.8851 9.70492 87.9667 9.70492C90.0742 9.70492 92.1688 10.1733 94.2503 11.11C94.2503 11.6303 94.1333 12.1768 93.8991 12.7492C93.6909 13.3216 93.4047 13.7639 93.0404 14.0762C91.1931 13.2175 89.4628 12.7882 87.8496 12.7882C86.991 12.7882 86.3014 12.9964 85.7811 13.4127C85.2867 13.829 85.0395 14.3494 85.0395 14.9738C85.0395 15.5983 85.2216 16.0797 85.5859 16.4179C85.9762 16.7562 86.6007 17.0944 87.4593 17.4327L89.801 18.3303C93.1055 19.6053 94.7577 21.5567 94.7577 24.1847C94.7577 25.98 94.0682 27.3981 92.6892 28.4388C91.3102 29.4796 89.4368 30 87.069 30C84.7012 30 82.4376 29.3495 80.278 28.0486Z" fill="#24A125"/>
<path d="M108.71 10.1733C108.84 10.6156 108.905 11.123 108.905 11.6954C108.905 12.2678 108.84 12.7622 108.71 13.1785L103.909 13.1004V24.7701C103.909 25.915 104.443 26.4874 105.509 26.4874H108.202C108.41 27.0598 108.515 27.6453 108.515 28.2437C108.515 28.8161 108.489 29.1934 108.436 29.3755C106.927 29.5577 105.47 29.6487 104.065 29.6487C101.333 29.6487 99.9672 28.3087 99.9672 25.6288V13.1395L97.079 13.1785C96.975 12.7362 96.9229 12.2548 96.9229 11.7344C96.9229 11.188 96.975 10.6676 97.079 10.1733L99.9672 10.2513V6.81677C99.9672 5.88007 100.123 5.21658 100.436 4.82629C100.748 4.436 101.307 4.24086 102.114 4.24086H103.636L103.909 4.51406V10.2904L108.71 10.1733Z" fill="#24A125"/>
<path d="M112.558 25.4336C113.209 25.0693 114.015 24.8872 114.978 24.8872C115.42 24.8872 115.811 24.9262 116.149 25.0043C116.487 25.0563 116.786 25.1474 117.047 25.2775C117.307 25.3816 117.476 25.6157 117.554 25.98C117.658 26.3183 117.71 26.7736 117.71 27.346C117.71 27.8924 117.671 28.3478 117.593 28.712C117.541 29.0503 117.398 29.2845 117.164 29.4146C116.93 29.5447 116.643 29.6357 116.305 29.6878C115.967 29.7658 115.538 29.8049 115.017 29.8049C114.523 29.8049 114.093 29.7658 113.729 29.6878C113.391 29.6357 113.092 29.5577 112.832 29.4536C112.571 29.3495 112.402 29.1153 112.324 28.7511C112.246 28.3868 112.207 27.9185 112.207 27.346C112.207 26.5134 112.324 25.8759 112.558 25.4336Z" fill="#24A125"/>
<path d="M127.69 13.5688V29.4926C127.195 29.5967 126.519 29.6487 125.66 29.6487C124.828 29.6487 124.164 29.5967 123.67 29.4926V15.208C123.67 14.4795 123.54 13.9591 123.279 13.6468C123.019 13.3346 122.577 13.1785 121.952 13.1785H121.523C121.393 12.6061 121.328 12.1247 121.328 11.7344C121.328 11.3441 121.393 10.8498 121.523 10.2513C122.382 10.1472 123.201 10.0952 123.982 10.0952H124.528C125.517 10.0952 126.285 10.4074 126.831 11.0319C127.403 11.6564 127.69 12.502 127.69 13.5688ZM122.811 6.5826C122.577 6.11425 122.46 5.54182 122.46 4.86532C122.46 3.79853 122.655 3.17406 123.045 2.99193C123.436 2.78377 124.086 2.66669 124.997 2.64067C126.037 2.66669 126.701 2.79678 126.987 3.03096C127.273 3.26513 127.429 3.87659 127.455 4.86532C127.429 5.80202 127.273 6.40046 126.987 6.66066C126.701 6.92085 126.037 7.06395 124.997 7.08998C123.982 7.08998 123.253 6.92085 122.811 6.5826Z" fill="#24A125"/>
<path d="M146.482 27.8534C145.05 29.2845 143.164 30 140.822 30C139.469 30 138.272 29.7658 137.232 29.2975C136.191 28.8031 135.306 28.1136 134.578 27.2289C133.875 26.3183 133.329 25.2515 132.938 24.0286C132.574 22.7796 132.392 21.3876 132.392 19.8525C132.392 18.3433 132.574 16.9643 132.938 15.7154C133.329 14.4665 133.875 13.3997 134.578 12.515C135.306 11.6043 136.191 10.9148 137.232 10.4465C138.272 9.9521 139.469 9.70492 140.822 9.70492C142.175 9.70492 143.372 9.9521 144.413 10.4465C145.454 10.9148 146.325 11.6043 147.028 12.515C147.756 13.3997 148.303 14.4665 148.667 15.7154C149.057 16.9643 149.253 18.3433 149.253 19.8525C149.253 23.3391 148.329 26.006 146.482 27.8534ZM140.822 12.7882C137.986 12.7882 136.568 15.143 136.568 19.8525C136.568 24.562 137.986 26.9167 140.822 26.9167C143.684 26.9167 145.116 24.562 145.116 19.8525C145.116 15.143 143.684 12.7882 140.822 12.7882Z" fill="#24A125"/>
</svg>
